<?xml version="1.0" standalone="no"?><!DOCTYPE svg PUBLIC "-//W3C//DTD SVG 1.1//EN" "http://www.w3.org/Graphics/SVG/1.1/DTD/svg11.dtd"><svg t="1755097439192" class="icon" viewBox="0 0 1024 1024" version="1.1" xmlns="http://www.w3.org/2000/svg" p-id="26856" width="16" height="16" xmlns:xlink="http://www.w3.org/1999/xlink"><path d="M737.706667 243.626667a42.496 42.496 0 0 0-60.16 0L512 408.746667 346.026667 243.2A42.496 42.496 0 1 0 285.866667 303.36l195.84 195.84c16.64 16.64 43.52 16.64 60.16 0l195.84-195.84a41.984 41.984 0 0 0 0-59.733333z m0 281.173333a42.496 42.496 0 0 0-60.16 0L512 689.92l-165.546667-165.546667a42.496 42.496 0 1 0-60.16 60.16l195.84 195.84c16.64 16.64 43.52 16.64 60.16 0l195.84-195.84a42.368 42.368 0 0 0-0.426666-59.733333z" p-id="26857"></path></svg>