<?xml version="1.0" standalone="no"?><!DOCTYPE svg PUBLIC "-//W3C//DTD SVG 1.1//EN" "http://www.w3.org/Graphics/SVG/1.1/DTD/svg11.dtd"><svg t="1754815657435" class="icon" viewBox="0 0 1024 1024" version="1.1" xmlns="http://www.w3.org/2000/svg" p-id="16370" width="16" height="16" xmlns:xlink="http://www.w3.org/1999/xlink"><path d="M800.45212457 306.26576409c-17.67476253 0-31.81457257 14.13981003-31.81457256 31.81457257V865.4952507c0 24.03767705-19.08874354 43.12642059-43.12642059 43.12642059H298.48886858c-24.03767705 0-43.12642059-19.08874354-43.12642059-43.12642059v-527.41491404c0-17.67476253-14.13981003-31.81457257-31.81457256-31.81457257s-31.81457257 14.13981003-31.81457257 31.81457257v551.45259109c0 45.24739209 36.76350606 82.01089817 82.01089816 82.01089817h476.51159796c45.24739209 0 82.01089817-36.76350606 82.01089816-82.01089817v-551.45259109c0-17.67476253-14.13981003-31.81457257-31.81457257-31.81457257z" p-id="16371"></path><path d="M456.1477504 789.14027654v-426.31527234c0-17.67476253-14.13981003-31.81457257-31.81457257-31.81457256s-31.81457257 14.13981003-31.81457256 31.81457256v426.31527234c0 17.67476253 14.13981003 31.81457257 31.81457256 31.81457257s31.81457257-14.13981003 31.81457257-31.81457257zM374.13685223 116.79230973h276.43328604c17.67476253 0 31.81457257-14.13981003 31.81457256-31.81457257s-14.13981003-31.81457257-31.81457256-31.81457256H374.13685223c-17.67476253 0-31.81457257 14.13981003-31.81457257 31.81457256s14.13981003 31.81457257 31.81457257 31.81457257zM900.84477577 180.42145485H123.15522423c-17.67476253 0-31.81457257 14.13981003-31.81457256 31.81457256s14.13981003 31.81457257 31.81457256 31.81457256h777.68955154c17.67476253 0 31.81457257-14.13981003 31.81457256-31.81457256s-14.13981003-31.81457257-31.81457256-31.81457256zM632.18838525 789.14027654v-426.31527234c0-17.67476253-14.13981003-31.81457257-31.81457257-31.81457256s-31.81457257 14.13981003-31.81457256 31.81457256v426.31527234c0 17.67476253 14.13981003 31.81457257 31.81457256 31.81457257 16.96777203 0.7069905 31.81457257-14.13981003 31.81457257-31.81457257z" p-id="16372"></path></svg>