<?xml version="1.0" standalone="no"?><!DOCTYPE svg PUBLIC "-//W3C//DTD SVG 1.1//EN" "http://www.w3.org/Graphics/SVG/1.1/DTD/svg11.dtd"><svg t="1754812467375" class="icon" viewBox="0 0 1024 1024" version="1.1" xmlns="http://www.w3.org/2000/svg" p-id="1496" width="16" height="16" xmlns:xlink="http://www.w3.org/1999/xlink"><path d="M902.9 364.5h-11.1v-42.8c0-31.6-25.6-57.1-57.1-57.1H496.8c-18.7 0-36.3-9.2-46.9-24.6L395 160.7c-10.7-15.4-28.2-24.6-46.9-24.6h-227c-31.5 0-57.1 25.5-57.1 57.1v585.2c0 63.1 51.1 114.2 114.2 114.2h569.1c51.6 0 96.8-34.6 110.3-84.4L958 436.5c9.8-36.3-17.6-72-55.1-72z m-68.2 0H250.4c-25.8 0-48.3 17.3-55.1 42.2l-60.2 222.7c-2.1 8-14 6.5-14-1.9v-420c0-7.8 6.4-14.3 14.3-14.3h205.3c4.7 0 9.1 2.3 11.7 6.2l51.3 74c21.4 30.3 56.2 48.3 93.3 48.3h323.5c7.8 0 14.3 6.4 14.3 14.3v28.5z" p-id="1497"></path></svg>