<?xml version="1.0" standalone="no"?>
<!DOCTYPE svg PUBLIC "-//W3C//DTD SVG 1.1//EN" "http://www.w3.org/Graphics/SVG/1.1/DTD/svg11.dtd">
<svg t="1748853409776" class="icon" viewBox="0 0 1024 1024" version="1.1" xmlns="http://www.w3.org/2000/svg" p-id="35056" xmlns:xlink="http://www.w3.org/1999/xlink" width="16" height="16">
    <g transform="rotate(45 512 512)">
        <path d="M452.992 185.792c28.608 85.76-0.64 172.416-65.216 193.6S247.68 348.224 219.008 262.4s0.64-172.416 65.216-193.6 140.16 31.168 168.768 116.992z m-252.16 211.392c37.76 64.832 28.544 140.16-20.48 168.192S61.056 563.584 23.488 498.816s-28.8-140.16 20.16-168.192 119.424 1.792 156.992 66.56z m-62.4 405.184C243.2 519.808 429.376 448 512 448s268.8 71.808 373.632 354.368c7.168 19.456 10.368 40.256 10.368 61.056v3.2c0 51.584-41.792 93.376-93.44 93.376a277.76 277.76 0 0 1-67.968-8.384l-176-44.032a193.28 193.28 0 0 0-93.184 0l-176 44.032A277.76 277.76 0 0 1 221.376 960C169.792 960 128 918.208 128 866.56v-3.2c0-20.736 3.2-41.6 10.432-60.992zM843.52 565.44c-48.96-27.968-58.24-103.36-20.352-168.192s107.968-94.592 156.992-66.56 58.176 103.36 20.352 168.192-107.968 94.592-156.992 66.56z m-223.36-185.984c-64.64-21.184-93.824-107.776-65.28-193.6S659.2 47.552 723.84 68.8s93.824 107.776 65.28 193.6S684.8 400.64 620.16 379.392z" p-id="35057"></path>
    </g>
</svg>
