<?xml version="1.0" standalone="no"?><!DOCTYPE svg PUBLIC "-//W3C//DTD SVG 1.1//EN" "http://www.w3.org/Graphics/SVG/1.1/DTD/svg11.dtd"><svg t="1754815855177" class="icon" viewBox="0 0 1024 1024" version="1.1" xmlns="http://www.w3.org/2000/svg" p-id="3332" width="16" height="16" xmlns:xlink="http://www.w3.org/1999/xlink"><path d="M757.333333 447.125333L363.093333 167.872a83.413333 83.413333 0 0 0-131.626666 68.096v558.464a83.413333 83.413333 0 0 0 131.626666 68.074667L757.333333 583.274667a83.413333 83.413333 0 0 0 0-136.149334z m-38.506666 74.965334a11.925333 11.925333 0 0 1-2.837334 2.837333l-394.218666 279.253333a11.925333 11.925333 0 0 1-18.794667-9.749333V235.968a11.925333 11.925333 0 0 1 18.794667-9.728l394.24 279.253333a11.925333 11.925333 0 0 1 3.904 14.72l-1.066667 1.877334z" p-id="3333"></path></svg>